<svg xmlns="http://www.w3.org/2000/svg" xmlns:xlink="http://www.w3.org/1999/xlink" width="16" height="448" viewBox="0 0 16 448" version="1.1">
    <title>Icons</title>
    <g id="Icons" stroke="none" stroke-width="1" fill="none" fill-rule="evenodd">
        <g id="Goal" transform="translate(1.000000, 17.000000)" fill-rule="nonzero">
            <g id="football-(1)">
                <path d="M14,7 C14,10.8659505 10.8659505,14 7,14 C3.13404948,14 0,10.8659505 0,7 C0,3.13404948 3.13404948,0 7,0 C10.8659505,0 14,3.13404948 14,7 Z" id="Path" fill="#FFFFFF"/>
                <path d="M13.0918457,3.55343424 L13.0918457,3.55571288 C13.0027507,3.39803059 12.9098958,3.24308268 12.8090658,3.09348958 L12.2891927,5.30297851 L9.54991861,6.21603191 L7.24985351,4.37591146 L7.24985351,1.66557618 L9.87257486,0.616943367 L9.81936847,0.593587225 C9.76103514,0.568408196 9.70247396,0.543684896 9.6436849,0.519417325 C7.95566406,-0.168961596 6.06586913,-0.172037775 4.37568361,0.510986321 C4.30675455,0.539013679 4.23862305,0.567838542 4.17128906,0.597574863 L4.11409507,0.6234375 L6.75014649,1.66603191 L6.75014649,4.37591146 L4.45008139,6.21603191 L1.7114909,5.30320639 L1.19161785,3.09348958 C1.10081382,3.22815757 1.01661785,3.36749674 0.9349284,3.50865885 L0.9349284,3.50649413 C0.321516942,4.56788736 -0.00102538917,5.77226563 -2.43723108e-06,6.99817708 C-2.43723108e-06,7.21772462 0.0113932292,7.43442382 0.0315592375,7.64895833 L1.5827474,5.78662111 L4.29080403,6.68919271 L4.97861327,9.44065757 L3.64002278,11.2256348 L1.14889323,10.8322266 C1.19207357,10.8976237 1.23764649,10.961084 1.28264972,11.0247722 L1.27330729,11.0234049 C2.17268882,12.3027507 3.47379556,13.2448568 4.96995444,13.6999024 L4.96482747,13.690332 C5.15577799,13.7486654 5.34889323,13.801416 5.54633788,13.8432292 L4.05439452,11.5075033 L5.3755534,9.74611003 L8.62558594,9.74611003 L9.96588542,11.5161621 L8.66489257,13.7944661 C8.8314616,13.7535644 8.99518229,13.7050293 9.15719402,13.6526205 L9.15275066,13.6611654 C10.5982096,13.1926758 11.8524902,12.2674316 12.7266927,11.0245443 L12.7173503,11.0259115 C12.7623535,10.9622233 12.8079264,10.898763 12.8511068,10.8334798 L10.3717122,11.2233561 L9.02161458,9.44065757 L9.70919597,6.68987632 L12.4172526,5.78662111 L13.9685547,7.6481608 C13.9822266,7.49936524 13.9902018,7.34886069 13.9948731,7.19790038 C13.996696,7.1315918 13.9999976,7.06585285 13.9999976,6.99931639 C14.0012533,5.79140625 13.6882812,4.60388997 13.0918457,3.55343424 Z" id="Path" fill="#222222"/>
                <path d="M7,14 C3.13404948,14 0,10.8659505 0,7 C0,3.13404948 3.13404948,0 7,0 C10.8659505,0 14,3.13404948 14,7 C13.9956706,10.8641276 10.8641276,13.9956706 7,14 Z M7,0.466666667 C3.39176431,0.466666667 0.466666667,3.39176431 0.466666667,7 C0.466666667,10.6082357 3.39176431,13.5333333 7,13.5333333 C10.6082357,13.5333333 13.5333333,10.6082357 13.5333333,7 C13.5292318,3.3934733 10.6065267,0.470768229 7,0.466666667 Z" id="Shape" fill="#222222"/>
            </g>
        </g>
        <g id="Goal-Penalty" transform="translate(1.000000, 49.000000)">
            <g id="football-(1)">
                <path d="M14,6.96428571 C14,10.810512 10.8659505,13.9285714 7,13.9285714 C3.13404948,13.9285714 0,10.810512 0,6.96428571 C0,3.11805943 3.13404948,0 7,0 C10.8659505,0 14,3.11805943 14,6.96428571 Z" id="Path" fill="#FFFFFF" fill-rule="nonzero"/>
                <path d="M13.0918457,3.53530447 L13.0918457,3.53757149 C13.0027507,3.3806937 12.9098958,3.22653633 12.8090658,3.07770647 L12.2891927,5.2759225 L9.54991861,6.18431746 L7.24985351,4.35358538 L7.24985351,1.65707834 L9.87257486,0.613795696 L9.81936848,0.590558719 C9.76103514,0.565508154 9.70247396,0.540910993 9.6436849,0.516767237 C7.95566406,-0.168099547 6.06586913,-0.171160031 4.37568361,0.508379248 C4.30675455,0.536263609 4.23862305,0.564941406 4.17128906,0.594526011 L4.11409507,0.620256696 L6.75014649,1.65753175 L6.75014649,4.35358538 L4.45008139,6.18431746 L1.7114909,5.27614921 L1.19161785,3.07770647 C1.10081382,3.21168737 1.01661785,3.35031563 0.9349284,3.49075753 L0.9349284,3.48860386 C0.321516942,4.54458181 -0.00102538917,5.74281529 -2.43723106e-06,6.9624721 C-2.43723106e-06,7.18089949 0.0113932292,7.39649309 0.0315592375,7.60993304 L1.5827474,5.75709753 L4.29080403,6.65506417 L4.97861327,9.39249095 L3.64002278,11.1683611 L1.14889323,10.7769601 C1.19207358,10.8420236 1.23764649,10.9051601 1.28264973,10.9685233 L1.27330729,10.9671631 C2.17268882,12.2399815 3.47379556,13.177281 4.96995444,13.6300049 L4.96482747,13.6204834 C5.15577799,13.6785191 5.34889323,13.7310006 5.54633788,13.7726004 L4.05439452,11.4487915 L5.3755534,9.69638498 L8.62558594,9.69638498 L9.96588542,11.4574062 L8.66489257,13.7240862 C8.8314616,13.6833932 8.99518229,13.6351057 9.15719403,13.5829642 L9.15275066,13.5914655 C10.5982097,13.1253662 11.8524902,12.2048427 12.7266927,10.9682966 L12.7173503,10.9696568 C12.7623535,10.9062936 12.8079264,10.8431571 12.8511068,10.778207 L10.3717122,11.1660941 L9.02161458,9.39249095 L9.70919597,6.65574429 L12.4172526,5.75709753 L13.9685547,7.60913957 C13.9822266,7.46110317 13.9902018,7.3113665 13.9948731,7.1611764 C13.996696,7.09520613 13.9999976,7.02980258 13.9999976,6.96360559 C14.0012533,5.76185826 13.6882813,4.58040073 13.0918457,3.53530447 Z" id="Path" fill="#888888" fill-rule="nonzero"/>
                <path d="M7,13.9285714 C3.13404948,13.9285714 0,10.810512 0,6.96428571 C0,3.11805943 3.13404948,0 7,0 C10.8659505,0 14,3.11805943 14,6.96428571 C13.9956706,10.8086984 10.8641276,13.9242641 7,13.9285714 Z M7,0.464285714 C3.39176431,0.464285714 0.466666667,3.37445939 0.466666667,6.96428571 C0.466666667,10.554112 3.39176431,13.4642857 7,13.4642857 C10.6082357,13.4642857 13.5333333,10.554112 13.5333333,6.96428571 C13.5292318,3.37615966 10.6065267,0.46836635 7,0.464285714 Z" id="Shape" fill="#888888" fill-rule="nonzero"/>
                <text id="P" font-family="Arial-BoldMT, Arial" font-size="12" font-weight="bold" fill="#000000">
                    <tspan x="2.99804688" y="11.5">P</tspan>
                </text>
            </g>
        </g>
        <g id="Missed-Penalty" transform="translate(1.000000, 62.000000)" fill-rule="nonzero">
            <g id="football-(1)">
                <path d="M14,10.09375 C14,13.9079244 10.8659505,17 7,17 C3.13404948,17 0,13.9079244 0,10.09375 C0,6.2795756 3.13404948,3.1875 7,3.1875 C10.8659505,3.1875 14,6.2795756 14,10.09375 Z" id="Path" fill="#FFFFFF"/>
                <path d="M13.0918457,6.6933436 L13.0918457,6.69559173 C13.0027507,6.54002125 12.9098958,6.38714853 12.8090658,6.23955892 L12.2891927,8.41945647 L9.54991861,9.32028148 L7.24985351,7.5048055 L7.24985351,4.83076936 L9.87257486,3.79618073 L9.81936848,3.7731374 C9.76103514,3.74829559 9.70247396,3.7239034 9.6436849,3.69996084 C7.95566406,3.02080128 6.06586913,3.0177663 4.37568361,3.69164275 C4.30675455,3.71929475 4.23862305,3.74773356 4.17128906,3.77707163 L4.11409507,3.80258789 L6.75014649,4.83121898 L6.75014649,7.5048055 L4.45008139,9.32028148 L1.7114909,8.4196813 L1.19161785,6.23955892 C1.10081382,6.37242331 1.01661785,6.50989633 0.9349284,6.64916789 L0.9349284,6.64703216 C0.321516942,7.6942103 -0.00102538917,8.8824585 -2.43723106e-06,10.0919515 C-2.43723106e-06,10.3085587 0.0113932292,10.5223556 0.0315592375,10.7340169 L1.5827474,8.89662172 L4.29080403,9.78710531 L4.97861327,12.5017202 L3.64002278,14.2627914 L1.14889323,13.8746521 C1.19207358,13.9391734 1.23764649,14.0017838 1.28264973,14.064619 L1.27330729,14.06327 C2.17268882,15.3254817 3.47379556,16.2549703 4.96995444,16.7039215 L4.96482747,16.6944794 C5.15577799,16.7520314 5.34889323,16.8040756 5.54633788,16.8453288 L4.05439452,14.5408849 L5.3755534,12.8030818 L8.62558594,12.8030818 L9.96588542,14.5494278 L8.66489257,16.7972188 C8.8314616,16.7568649 8.99518229,16.7089798 9.15719403,16.6572729 L9.15275066,16.6657033 C10.5982097,16.2034881 11.8524902,15.2906357 12.7266927,14.0643941 L12.7173503,14.065743 C12.7623535,14.0029078 12.8079264,13.9402974 12.8511068,13.8758886 L10.3717122,14.2605433 L9.02161458,12.5017202 L9.70919597,9.78777976 L12.4172526,8.89662172 L13.9685547,10.7332301 C13.9822266,10.5864273 13.9902018,10.4379385 13.9948731,10.2889999 C13.996696,10.2235794 13.9999976,10.1587209 13.9999976,10.0930755 C14.0012533,8.90134277 13.6882813,7.72973073 13.0918457,6.6933436 Z" id="Path" fill="#4E4E4E"/>
                <path d="M7,17 C3.13404948,17 0,13.9079244 0,10.09375 C0,6.2795756 3.13404948,3.1875 7,3.1875 C10.8659505,3.1875 14,6.2795756 14,10.09375 C13.9956706,13.9061259 10.8641276,16.9957285 7,17 Z M7,3.64791667 C3.39176431,3.64791667 0.466666667,6.53383889 0.466666667,10.09375 C0.466666667,13.6536611 3.39176431,16.5395833 7,16.5395833 C10.6082357,16.5395833 13.5333333,13.6536611 13.5333333,10.09375 C13.5292318,6.535525 10.6065267,3.6519633 7,3.64791667 Z" id="Shape" fill="#4E4E4E"/>
                <path d="M11.5165022,5.63755294 C11.0769667,5.20414902 10.3645313,5.20414902 9.92486651,5.63755294 L7.00001616,8.52329854 L4.07503653,5.63755294 C3.63550101,5.20414902 2.92306564,5.20414902 2.48340084,5.63755294 C2.04399459,6.07121194 2.04399459,6.77424972 2.48340084,7.20790873 L5.40838047,10.0936543 L2.48340084,12.9795275 C2.04399459,13.413059 2.04399459,14.1162243 2.48340084,14.5498833 C2.7031686,14.7665852 2.99119364,14.875 3.27921869,14.875 C3.56724373,14.875 3.85526877,14.7665852 4.07503653,14.5498833 L7.00001616,11.6640101 L9.92486651,14.5497557 C10.1446343,14.7664577 10.4326593,14.8748725 10.7206844,14.8748725 C11.0087094,14.8748725 11.2967344,14.7664577 11.5165022,14.5497557 C11.9559085,14.1160967 11.9559085,13.413059 11.5165022,12.9793999 L8.59165185,10.0936543 L11.5165022,7.20790873 C11.9560377,6.77424972 11.9560377,6.0710844 11.5165022,5.63755294 L11.5165022,5.63755294 Z" id="Path" fill="#FF3D3D"/>
            </g>
        </g>
        <g id="Own-Goal" transform="translate(1.000000, 33.000000)" fill-rule="nonzero">
            <g id="football-(1)">
                <path d="M14,7 C14,10.8659505 10.8659505,14 7,14 C3.13404948,14 0,10.8659505 0,7 C0,3.13404948 3.13404948,0 7,0 C10.8659505,0 14,3.13404948 14,7 Z" id="Path" fill="#FF3D3D"/>
                <path d="M13.0918457,3.55343424 L13.0918457,3.55571288 C13.0027507,3.39803059 12.9098958,3.24308268 12.8090658,3.09348958 L12.2891927,5.30297851 L9.54991861,6.21603191 L7.24985351,4.37591146 L7.24985351,1.66557618 L9.87257486,0.616943367 L9.81936847,0.593587225 C9.76103514,0.568408196 9.70247396,0.543684896 9.6436849,0.519417325 C7.95566406,-0.168961596 6.06586913,-0.172037775 4.37568361,0.510986321 C4.30675455,0.539013679 4.23862305,0.567838542 4.17128906,0.597574863 L4.11409507,0.6234375 L6.75014649,1.66603191 L6.75014649,4.37591146 L4.45008139,6.21603191 L1.7114909,5.30320639 L1.19161785,3.09348958 C1.10081382,3.22815757 1.01661785,3.36749674 0.9349284,3.50865885 L0.9349284,3.50649413 C0.321516942,4.56788736 -0.00102538917,5.77226563 -2.43723108e-06,6.99817708 C-2.43723108e-06,7.21772462 0.0113932292,7.43442382 0.0315592375,7.64895833 L1.5827474,5.78662111 L4.29080403,6.68919271 L4.97861327,9.44065757 L3.64002278,11.2256348 L1.14889323,10.8322266 C1.19207357,10.8976237 1.23764649,10.961084 1.28264972,11.0247722 L1.27330729,11.0234049 C2.17268882,12.3027507 3.47379556,13.2448568 4.96995444,13.6999024 L4.96482747,13.690332 C5.15577799,13.7486654 5.34889323,13.801416 5.54633788,13.8432292 L4.05439452,11.5075033 L5.3755534,9.74611003 L8.62558594,9.74611003 L9.96588542,11.5161621 L8.66489257,13.7944661 C8.8314616,13.7535644 8.99518229,13.7050293 9.15719402,13.6526205 L9.15275066,13.6611654 C10.5982096,13.1926758 11.8524902,12.2674316 12.7266927,11.0245443 L12.7173503,11.0259115 C12.7623535,10.9622233 12.8079264,10.898763 12.8511068,10.8334798 L10.3717122,11.2233561 L9.02161458,9.44065757 L9.70919597,6.68987632 L12.4172526,5.78662111 L13.9685547,7.6481608 C13.9822266,7.49936524 13.9902018,7.34886069 13.9948731,7.19790038 C13.996696,7.1315918 13.9999976,7.06585285 13.9999976,6.99931639 C14.0012533,5.79140625 13.6882812,4.60388997 13.0918457,3.55343424 Z" id="Path" fill="#222222"/>
                <path d="M7,14 C3.13404948,14 0,10.8659505 0,7 C0,3.13404948 3.13404948,0 7,0 C10.8659505,0 14,3.13404948 14,7 C13.9956706,10.8641276 10.8641276,13.9956706 7,14 Z M7,0.466666667 C3.39176431,0.466666667 0.466666667,3.39176431 0.466666667,7 C0.466666667,10.6082357 3.39176431,13.5333333 7,13.5333333 C10.6082357,13.5333333 13.5333333,10.6082357 13.5333333,7 C13.5292318,3.3934733 10.6065267,0.470768229 7,0.466666667 Z" id="Shape" fill="#222222"/>
            </g>
        </g>
        <g id="Assist" transform="translate(1.000000, 81.000000)">
            <circle id="Oval" fill="#888888" cx="7" cy="7" r="7"/>
            <text id="A" font-family="ArialMT, Arial" font-size="9" font-weight="normal" fill="#FFFFFF">
                <tspan x="3.99853516" y="10">A</tspan>
            </text>
        </g>
        <g id="Last-Man-Tackle" transform="translate(1.000000, 97.000000)">
            <circle id="Oval" fill="#888888" cx="7" cy="7" r="7"/>
            <text id="T" font-family="ArialMT, Arial" font-size="9" font-weight="normal" fill="#FFFFFF">
                <tspan x="4.2512207" y="10">T</tspan>
            </text>
        </g>
        <g id="Clearance" transform="translate(1.000000, 113.000000)">
            <circle id="Oval" fill="#888888" cx="7" cy="7" r="7"/>
            <text id="C" font-family="ArialMT, Arial" font-size="9" font-weight="normal" fill="#FFFFFF">
                <tspan x="3.75024414" y="10">C</tspan>
            </text>
        </g>
        <g id="Error" transform="translate(1.000000, 225.000000)">
            <path d="M7,14 C10.8659932,14 14,10.8659932 14,7 C14,3.13400675 10.8659932,0 7,0 C3.13400675,0 0,3.13400675 0,7 C0,10.8659932 3.13400675,14 7,14 Z" id="Oval" fill="#FF3D3D"/>
            <text id="E" font-family="ArialMT, Arial" font-size="9" font-weight="normal" fill="#FFFFFF">
                <tspan x="3.99853516" y="10">E</tspan>
            </text>
        </g>
        <g id="Penalty-caused" transform="translate(1.000000, 417.000000)">
            <path d="M7,14 C10.8659932,14 14,10.8659932 14,7 C14,3.13400675 10.8659932,0 7,0 C3.13400675,0 0,3.13400675 0,7 C0,10.8659932 3.13400675,14 7,14 Z" id="Oval" fill="#FF3D3D"/>
            <text id="P" font-family="ArialMT, Arial" font-size="9" font-weight="normal" fill="#FFFFFF">
                <tspan x="3.99853516" y="10">P</tspan>
            </text>
        </g>
        <g id="Yellow-Card" transform="translate(3.000000, 129.000000)" fill="#FFD100">
            <rect id="Rectangle" x="0" y="0" width="10" height="14" rx="1"/>
        </g>
        <g id="Red-Card" transform="translate(3.000000, 145.000000)" fill="#FF3D3D">
            <rect id="Rectangle" x="0" y="0" width="10" height="14" rx="1"/>
        </g>
        <g id="Second-Yellow" transform="translate(2.000000, 208.000000)">
            <g id="Icons/cards/Red-Card-Copy" transform="translate(5.117979, 7.041806) rotate(-7.000000) translate(-5.117979, -7.041806) translate(1.117979, 1.041806)" fill="#FF3D3D">
                <rect id="Rectangle" x="5.24832703e-16" y="3.9587381e-14" width="7.68181818" height="11.6734694" rx="1"/>
            </g>
            <g id="Icons/cards/Yellow-Card-Copy" transform="translate(7.240569, 8.155541) rotate(15.000000) translate(-7.240569, -8.155541) translate(3.240569, 2.155541)" fill="#FFD100">
                <rect id="Rectangle" x="-2.01535758e-13" y="2.92337583e-13" width="7.68181818" height="11.6734694" rx="1"/>
            </g>
        </g>
        <g id="Sub-In" transform="translate(4.000000, 162.000000)" fill="#12E315" fill-rule="nonzero">
            <path d="M8.82634207,5.14485366 L4.91987391,1.17537398 C4.80845165,1.06215447 4.65980061,1 4.49812391,1 C4.33961562,1 4.1910526,1.06215447 4.07963033,1.17537398 L0.173074159,5.14485366 C-0.0576913865,5.37943089 -0.0576913865,5.76121138 0.173074159,5.99560976 L0.527759571,6.35619512 C0.639181837,6.4693252 0.787832869,6.53156911 0.946429175,6.53156911 C1.10493747,6.53156911 1.25869316,6.4693252 1.37002741,6.35619512 L3.65409585,4.04029268 L3.65409585,11.3978618 C3.65409585,11.7294715 3.90968057,12 4.23602636,12 L4.73769059,12 C5.06403637,12 5.34549641,11.7294715 5.34549641,11.3978618 L5.34549641,4.01417886 L7.6425025,6.35619512 C7.75383676,6.4693252 7.89852728,6.53156911 8.05712359,6.53156911 C8.21571989,6.53156911 8.36217064,6.4693252 8.47368092,6.35619512 L8.8273102,5.99560976 C9.05816375,5.76112195 9.05728364,5.37943089 8.82634207,5.14485366 Z" id="Path"/>
        </g>
        <g id="SubInOut" transform="translate(2.000000, 194.000000)" stroke-width="0.5">
            <g id="Icons/ArrowUp-Copy" fill="#12E315" stroke="#12E315">
                <path d="M8.30560675,5.28839565 C8.30560675,5.28477898 8.30181786,5.27754565 8.30181786,5.27392898 C8.30181786,5.27031231 8.29802897,5.26307713 8.29802897,5.25946046 C8.29802897,5.25584379 8.29424008,5.24861046 8.29424008,5.24499379 C8.29424008,5.24137713 8.29044925,5.23414194 8.29044925,5.23052528 C8.28666036,5.22690861 8.28666036,5.22329194 8.28287147,5.21967528 C8.27908258,5.21605861 8.27908258,5.20882342 8.27529369,5.20520676 C8.27150481,5.20159009 8.27150481,5.19797342 8.26771592,5.19435676 C8.26392703,5.19074009 8.2601362,5.18350676 8.2601362,5.17988824 C8.25634731,5.17627157 8.25255842,5.17265491 8.25255842,5.16903824 L8.24119175,5.15818824 C8.23361398,5.15095305 8.22982315,5.14371972 8.22224537,5.14010305 L5.63055225,2.66621416 C5.50551116,2.54685676 5.30090146,2.54685676 5.17206371,2.66621416 C5.04702262,2.78557157 5.04702262,2.98088083 5.17206371,3.10386231 L7.20677271,5.04608453 L-1.06495569,5.04608453 C-1.24304511,5.04608453 -1.38704034,5.18352713 -1.38704034,5.35352898 C-1.38704034,5.52353083 -1.24305287,5.66097342 -1.06495569,5.66097342 L7.20677271,5.66097342 L5.17206371,7.60319565 C5.04702262,7.72255305 5.04702262,7.91786231 5.17206371,8.04084379 C5.2364787,8.10233083 5.31984008,8.13126602 5.39941645,8.13126602 C5.47898893,8.13126602 5.5661392,8.10233083 5.62676918,8.04084379 L8.2184623,5.56695491 C8.22604008,5.55972157 8.22983091,5.55610491 8.23740869,5.54887157 C8.24119757,5.54525305 8.24498646,5.54163639 8.24877535,5.53801972 C8.25256424,5.53440305 8.25635313,5.53078639 8.25635313,5.52716972 C8.26014396,5.52355305 8.26393285,5.51631787 8.26393285,5.5127012 C8.26772174,5.50908453 8.26772174,5.50546787 8.27151063,5.5018512 C8.27529951,5.49823453 8.27529951,5.4910012 8.2790884,5.48738268 C8.29045701,5.47291602 8.29045701,5.46568268 8.29045701,5.46206602 C8.29045701,5.4584475 8.2942459,5.45121416 8.2942459,5.4475975 C8.2942459,5.44398083 8.29803479,5.4367475 8.29803479,5.43313083 C8.29803479,5.42951231 8.30182368,5.42227898 8.30182368,5.41866231 C8.30182368,5.41142898 8.30561257,5.40781231 8.30561257,5.40057713 L8.30561257,5.38972713 C8.30940146,5.36802528 8.30940146,5.34994194 8.30561257,5.32824009 C8.30940146,5.31377342 8.30940146,5.31015491 8.30940146,5.30653824 C8.30940146,5.2992475 8.30940146,5.29562898 8.30560675,5.28839565 Z" id="Icons/ArrowUp" transform="translate(3.461181, 5.353981) scale(1, -1) rotate(-270.000000) translate(-3.461181, -5.353981) "/>
            </g>
            <g id="Icons/ArrowDown-Copy" transform="translate(6.000000, 0.000000)" fill="#FF3D3D" stroke="#FF3D3D">
                <path d="M8.30560675,5.28839565 C8.30560675,5.28477898 8.30181786,5.27754565 8.30181786,5.27392898 C8.30181786,5.27031231 8.29802897,5.26307713 8.29802897,5.25946046 C8.29802897,5.25584379 8.29424008,5.24861046 8.29424008,5.24499379 C8.29424008,5.24137713 8.29044925,5.23414194 8.29044925,5.23052528 C8.28666036,5.22690861 8.28666036,5.22329194 8.28287147,5.21967528 C8.27908258,5.21605861 8.27908258,5.20882342 8.27529369,5.20520676 C8.27150481,5.20159009 8.27150481,5.19797342 8.26771592,5.19435676 C8.26392703,5.19074009 8.2601362,5.18350676 8.2601362,5.17988824 C8.25634731,5.17627157 8.25255842,5.17265491 8.25255842,5.16903824 L8.24119175,5.15818824 C8.23361398,5.15095305 8.22982315,5.14371972 8.22224537,5.14010305 L5.63055225,2.66621416 C5.50551116,2.54685676 5.30090146,2.54685676 5.17206371,2.66621416 C5.04702262,2.78557157 5.04702262,2.98088083 5.17206371,3.10386231 L7.20677271,5.04608453 L-1.06495569,5.04608453 C-1.24304511,5.04608453 -1.38704034,5.18352713 -1.38704034,5.35352898 C-1.38704034,5.52353083 -1.24305287,5.66097342 -1.06495569,5.66097342 L7.20677271,5.66097342 L5.17206371,7.60319565 C5.04702262,7.72255305 5.04702262,7.91786231 5.17206371,8.04084379 C5.2364787,8.10233083 5.31984008,8.13126602 5.39941645,8.13126602 C5.47898893,8.13126602 5.5661392,8.10233083 5.62676918,8.04084379 L8.2184623,5.56695491 C8.22604008,5.55972157 8.22983091,5.55610491 8.23740869,5.54887157 C8.24119757,5.54525305 8.24498646,5.54163639 8.24877535,5.53801972 C8.25256424,5.53440305 8.25635313,5.53078639 8.25635313,5.52716972 C8.26014396,5.52355305 8.26393285,5.51631787 8.26393285,5.5127012 C8.26772174,5.50908453 8.26772174,5.50546787 8.27151063,5.5018512 C8.27529951,5.49823453 8.27529951,5.4910012 8.2790884,5.48738268 C8.29045701,5.47291602 8.29045701,5.46568268 8.29045701,5.46206602 C8.29045701,5.4584475 8.2942459,5.45121416 8.2942459,5.4475975 C8.2942459,5.44398083 8.29803479,5.4367475 8.29803479,5.43313083 C8.29803479,5.42951231 8.30182368,5.42227898 8.30182368,5.41866231 C8.30182368,5.41142898 8.30561257,5.40781231 8.30561257,5.40057713 L8.30561257,5.38972713 C8.30940146,5.36802528 8.30940146,5.34994194 8.30561257,5.32824009 C8.30940146,5.31377342 8.30940146,5.31015491 8.30940146,5.30653824 C8.30940146,5.2992475 8.30940146,5.29562898 8.30560675,5.28839565 Z" id="Icons/ArrowDown" transform="translate(3.461181, 5.353981) rotate(-270.000000) translate(-3.461181, -5.353981) "/>
            </g>
        </g>
        <g id="Sub-Out" transform="translate(4.000000, 179.000000)" fill="#FF3D3D" fill-rule="nonzero">
            <path d="M8.82634207,4.14485366 L4.91987391,0.175373984 C4.80845165,0.0621544715 4.65980061,5.68434189e-14 4.49812391,5.68434189e-14 C4.33961562,5.68434189e-14 4.1910526,0.0621544715 4.07963033,0.175373984 L0.173074159,4.14485366 C-0.0576913865,4.37943089 -0.0576913865,4.76121138 0.173074159,4.99560976 L0.527759571,5.35619512 C0.639181837,5.4693252 0.787832869,5.53156911 0.946429175,5.53156911 C1.10493747,5.53156911 1.25869316,5.4693252 1.37002741,5.35619512 L3.65409585,3.04029268 L3.65409585,10.3978618 C3.65409585,10.7294715 3.90968057,11 4.23602636,11 L4.73769059,11 C5.06403637,11 5.34549641,10.7294715 5.34549641,10.3978618 L5.34549641,3.01417886 L7.6425025,5.35619512 C7.75383676,5.4693252 7.89852728,5.53156911 8.05712359,5.53156911 C8.21571989,5.53156911 8.36217064,5.4693252 8.47368092,5.35619512 L8.8273102,4.99560976 C9.05816375,4.76112195 9.05728364,4.37943089 8.82634207,4.14485366 Z" id="Path" transform="translate(4.500000, 5.500000) rotate(-180.000000) translate(-4.500000, -5.500000) "/>
        </g>
        <g id="Post" transform="translate(1.000000, 238.000000)">
            <path d="M0,6 L14,6 L14,16 L12.3846154,16 L12.3846154,7.66666667 L1.61538462,7.66666667 L1.61538462,16 C1.25641026,16 0.717948718,16 0,16 L0,6 Z" id="Rectangle" fill="#C2C2C2"/>
            <path d="M11.8299416,5.16996232 C11.6031971,4.94334589 11.2356709,4.94334589 11.0088597,5.16996232 L9.5,6.67884891 L7.99109027,5.16996232 C7.76434576,4.94334589 7.39681957,4.94334589 7.17000837,5.16996232 C6.94333054,5.39671213 6.94333054,5.76431358 7.17000837,5.99106339 L8.67892643,7.49994998 L7.17000837,9.00890326 C6.94333054,9.23558638 6.94333054,9.60325453 7.17000837,9.83000433 C7.28338063,9.94331255 7.43196497,10 7.58054932,10 C7.72913367,10 7.87771802,9.94331255 7.99109027,9.83000433 L9.5,8.32105105 L11.0088597,9.82993764 C11.122232,9.94324586 11.2708163,9.99993331 11.4194007,9.99993331 C11.567985,9.99993331 11.7165694,9.94324586 11.8299416,9.82993764 C12.0566194,9.60318784 12.0566194,9.23558638 11.8299416,9.00883657 L10.3210902,7.49994998 L11.8299416,5.99106339 C12.0566861,5.76431358 12.0566861,5.39664544 11.8299416,5.16996232 L11.8299416,5.16996232 Z" id="Path" fill="#FF3D3D" fill-rule="nonzero"/>
        </g>
        <g id="Penalty-Save" transform="translate(1.000000, 259.000000)" fill="#C2C2C2">
            <path d="M0,0 L14,0 L14,10 L12.3846154,10 L12.3846154,1.66666667 L1.61538462,1.66666667 L1.61538462,10 C1.25641026,10 0.717948718,10 0,10 L0,0 Z" id="Rectangle"/>
            <g id="glove" transform="translate(5.000000, 2.000000)" fill-rule="nonzero">
                <path d="M5.17386156,2.07521302 L4.69450206,2.62526021 L5.01889827,1.21895338 C5.09161877,0.924825834 4.94277315,0.618735437 4.6864161,0.535300624 C4.43005904,0.451865826 4.16322214,0.622641675 4.09050163,0.916830249 C4.08890573,0.923422026 4.087363,0.93007485 4.08592669,0.936727658 L3.83308064,2.03901929 L3.83308064,0.603537732 C3.83488934,0.272361972 3.6023646,0.00209909221 3.31366367,1.18862114e-05 C3.02501595,-0.00205127039 2.78951217,0.264732588 2.78770348,0.595969395 L2.7070566,2.21675313 L2.32377114,0.858236674 C2.22769709,0.575217504 1.94990159,0.435142235 1.7032264,0.545310375 C1.45660442,0.655478499 1.33446377,0.974264155 1.43053783,1.25722231 L1.85845569,3.21870326 L1.85845569,4.16492846 L1.03953878,3.10822995 C0.801747532,2.83540362 0.416174601,2.83540362 0.17838334,3.10822995 C-0.0594611135,3.38105629 -0.0594611135,3.82343778 0.17838334,4.09626411 L1.85845569,6.02374858 L1.85845569,7.86669962 C1.85845569,7.9403078 1.9104293,8 1.97458507,8 L4.53001648,8 C4.59417224,8 4.64614585,7.9403078 4.64614585,7.86669962 L4.64614585,6.0110533 L4.92920788,3.93208003 L5.86079635,2.86323557 C6.04879506,2.64363173 6.04602881,2.29078855 5.85457228,2.07509096 C5.66561601,1.86213992 5.36281783,1.86213992 5.17386156,2.07509096 L5.17386156,2.07521302 Z" id="Shape"/>
            </g>
        </g>
        <g id="Formation-Change-2" transform="translate(3.000000, 274.000000)" fill-rule="nonzero">
            <path d="M9.8498323,1.72503332 L8.08959783,0.112799414 C7.90769306,-0.0538759245 7.63197798,-0.0334311208 7.47383916,0.158179482 C7.31570034,0.349842913 7.3350039,0.640296482 7.51690867,0.80697182 L8.45039901,1.66200838 C5.69515348,2.04169005 4.06377657,3.55877901 3.15685997,4.84104329 C2.36250572,5.96418677 1.99112517,7.07047782 1.8420114,7.62026871 C0.806437784,7.74785062 0,8.67748166 0,9.8023685 C0,11.0141061 0.935646325,12 2.08568757,12 C3.23572882,12 4.17142529,11.014159 4.17142529,9.8023685 C4.17142529,8.82693476 3.56494236,7.9983655 2.72857151,7.71208542 C2.88565741,7.18918447 3.22590155,6.27360594 3.87796095,5.36103865 C5.01311088,3.77241929 6.59003669,2.83687141 8.57379142,2.57082481 L7.70397777,3.62513217 C7.54583895,3.8167956 7.56514252,4.10724917 7.74704728,4.27392451 C7.82967657,4.3496284 7.93165956,4.38671432 8.0331913,4.38671432 C8.15517981,4.38671432 8.27651651,4.33314576 8.36280595,4.22854444 L9.89295195,2.37382566 C10.0510908,2.1821094 10.0317872,1.89170866 9.8498323,1.72503332 Z M3.33333333,9.81815927 C3.33333333,10.4197322 2.83491243,10.9090909 2.22219925,10.9090909 C1.60953201,10.9090909 1.11111111,10.4197322 1.11111111,9.81815927 C1.11111111,9.21663143 1.60953201,8.72727273 2.22219925,8.72727273 C2.83486649,8.72727273 3.33333333,9.21663143 3.33333333,9.81815927 Z" id="Shape" fill="#7CC700"/>
            <path d="M7.10200468,11.8980026 C7.17002781,11.9659875 7.25917812,12 7.34832843,12 C7.43747874,12 7.52662905,11.9659875 7.59465218,11.8980026 L8.5,10.9926306 L9.40534782,11.8980026 C9.47337095,11.9659875 9.56252126,12 9.65167157,12 C9.74082188,12 9.82997219,11.9659875 9.89799532,11.8980026 C10.0340016,11.7619927 10.0340016,11.5413918 9.89799532,11.405342 L8.99260749,10.50001 L9.8979553,9.59463803 C10.0339615,9.45862816 10.0339615,9.23802728 9.8979553,9.10197739 C9.76190905,8.96600754 9.54139407,8.96600754 9.4053078,9.10197739 L8.5,10.0073494 L7.59465218,9.10197739 C7.45860593,8.96600754 7.23809095,8.96600754 7.10200468,9.10197739 C6.96599844,9.23798726 6.96599844,9.45858815 7.10200468,9.59463803 L8.0073525,10.50001 L7.10200468,11.405342 C6.96599844,11.5413918 6.96599844,11.7619527 7.10200468,11.8980026 L7.10200468,11.8980026 Z" id="Path" fill="#FA6400"/>
            <path d="M2.89796497,0.101977392 C2.76191826,-0.0339924639 2.54140255,-0.0339924639 2.40531583,0.101977392 L1.5,1.00730935 L0.594654165,0.101977392 C0.458607455,-0.0339924639 0.238091745,-0.0339924639 0.102005022,0.101977392 C-0.0340016739,0.238027277 -0.0340016739,0.458588149 0.102005022,0.594638034 L1.00735586,1.49996999 L0.102005022,2.40534196 C-0.0340016739,2.54135183 -0.0340016739,2.76195272 0.102005022,2.8980026 C0.170028376,2.96598753 0.259178985,3 0.348329593,3 C0.437480202,3 0.52663081,2.96598753 0.594654165,2.8980026 L1.5,1.99263063 L2.40531583,2.89796259 C2.47333918,2.96594751 2.56248979,2.99995999 2.6516404,2.99995999 C2.740791,2.99995999 2.82994161,2.96594751 2.89796497,2.89796259 C3.03397166,2.7619127 3.03397166,2.54135183 2.89796497,2.40530194 L1.99265414,1.49996999 L2.89796497,0.594638034 C3.03401168,0.458588149 3.03401168,0.237987262 2.89796497,0.101977392 L2.89796497,0.101977392 Z" id="Path" fill="#FA6400"/>
        </g>
        <g id="Formation-Change" transform="translate(2.000000, 290.000000)" fill="#FA6400" fill-rule="nonzero">
            <path d="M0.102004682,11.8980026 C0.170027809,11.9659875 0.259178121,12 0.348328432,12 C0.437478743,12 0.526629054,11.9659875 0.594652182,11.8980026 L1.5,10.9926306 L2.40534782,11.8980026 C2.47337095,11.9659875 2.56252126,12 2.65167157,12 C2.74082188,12 2.82997219,11.9659875 2.89799532,11.8980026 C3.03400156,11.7619927 3.03400156,11.5413918 2.89799532,11.405342 L1.99260749,10.50001 L2.8979553,9.59463803 C3.03396155,9.45862816 3.03396155,9.23802728 2.8979553,9.10197739 C2.76190905,8.96600754 2.54139407,8.96600754 2.4053078,9.10197739 L1.5,10.0073494 L0.594652182,9.10197739 C0.458605926,8.96600754 0.238090951,8.96600754 0.102004682,9.10197739 C-0.0340015605,9.23798726 -0.0340015605,9.45858815 0.102004682,9.59463803 L1.0073525,10.50001 L0.102004682,11.405342 C-0.0340015605,11.5413918 -0.0340015605,11.7619527 0.102004682,11.8980026 L0.102004682,11.8980026 Z" id="Path"/>
            <path d="M4.10200468,11.8980026 C4.17002781,11.9659875 4.25917812,12 4.34832843,12 C4.43747874,12 4.52662905,11.9659875 4.59465218,11.8980026 L5.5,10.9926306 L6.40534782,11.8980026 C6.47337095,11.9659875 6.56252126,12 6.65167157,12 C6.74082188,12 6.82997219,11.9659875 6.89799532,11.8980026 C7.03400156,11.7619927 7.03400156,11.5413918 6.89799532,11.405342 L5.99260749,10.50001 L6.8979553,9.59463803 C7.03396155,9.45862816 7.03396155,9.23802728 6.8979553,9.10197739 C6.76190905,8.96600754 6.54139407,8.96600754 6.4053078,9.10197739 L5.5,10.0073494 L4.59465218,9.10197739 C4.45860593,8.96600754 4.23809095,8.96600754 4.10200468,9.10197739 C3.96599844,9.23798726 3.96599844,9.45858815 4.10200468,9.59463803 L5.0073525,10.50001 L4.10200468,11.405342 C3.96599844,11.5413918 3.96599844,11.7619527 4.10200468,11.8980026 L4.10200468,11.8980026 Z" id="Path"/>
            <path d="M9.10200468,11.8980026 C9.17002781,11.9659875 9.25917812,12 9.34832843,12 C9.43747874,12 9.52662905,11.9659875 9.59465218,11.8980026 L10.5,10.9926306 L11.4053478,11.8980026 C11.4733709,11.9659875 11.5625213,12 11.6516716,12 C11.7408219,12 11.8299722,11.9659875 11.8979953,11.8980026 C12.0340016,11.7619927 12.0340016,11.5413918 11.8979953,11.405342 L10.9926075,10.50001 L11.8979553,9.59463803 C12.0339615,9.45862816 12.0339615,9.23802728 11.8979553,9.10197739 C11.761909,8.96600754 11.5413941,8.96600754 11.4053078,9.10197739 L10.5,10.0073494 L9.59465218,9.10197739 C9.45860593,8.96600754 9.23809095,8.96600754 9.10200468,9.10197739 C8.96599844,9.23798726 8.96599844,9.45858815 9.10200468,9.59463803 L10.0073525,10.50001 L9.10200468,11.405342 C8.96599844,11.5413918 8.96599844,11.7619527 9.10200468,11.8980026 L9.10200468,11.8980026 Z" id="Path"/>
            <path d="M8.10200468,2.8980026 C8.17002781,2.96598753 8.25917812,3 8.34832843,3 C8.43747874,3 8.52662905,2.96598753 8.59465218,2.8980026 L9.5,1.99263063 L10.4053478,2.8980026 C10.4733709,2.96598753 10.5625213,3 10.6516716,3 C10.7408219,3 10.8299722,2.96598753 10.8979953,2.8980026 C11.0340016,2.76199273 11.0340016,2.54139184 10.8979953,2.40534196 L9.99260749,1.50001 L10.8979553,0.594638034 C11.0339615,0.458628164 11.0339615,0.238027277 10.8979553,0.101977392 C10.761909,-0.0339924639 10.5413941,-0.0339924639 10.4053078,0.101977392 L9.5,1.00734936 L8.59465218,0.101977392 C8.45860593,-0.0339924639 8.23809095,-0.0339924639 8.10200468,0.101977392 C7.96599844,0.237987262 7.96599844,0.458588149 8.10200468,0.594638034 L9.0073525,1.50001 L8.10200468,2.40534196 C7.96599844,2.54139184 7.96599844,2.76195272 8.10200468,2.8980026 L8.10200468,2.8980026 Z" id="Path"/>
            <path d="M1.10200468,2.8980026 C1.17002781,2.96598753 1.25917812,3 1.34832843,3 C1.43747874,3 1.52662905,2.96598753 1.59465218,2.8980026 L2.5,1.99263063 L3.40534782,2.8980026 C3.47337095,2.96598753 3.56252126,3 3.65167157,3 C3.74082188,3 3.82997219,2.96598753 3.89799532,2.8980026 C4.03400156,2.76199273 4.03400156,2.54139184 3.89799532,2.40534196 L2.99260749,1.50001 L3.8979553,0.594638034 C4.03396155,0.458628164 4.03396155,0.238027277 3.8979553,0.101977392 C3.76190905,-0.0339924639 3.54139407,-0.0339924639 3.4053078,0.101977392 L2.5,1.00734936 L1.59465218,0.101977392 C1.45860593,-0.0339924639 1.23809095,-0.0339924639 1.10200468,0.101977392 C0.965998439,0.237987262 0.965998439,0.458588149 1.10200468,0.594638034 L2.0073525,1.50001 L1.10200468,2.40534196 C0.965998439,2.54139184 0.965998439,2.76195272 1.10200468,2.8980026 L1.10200468,2.8980026 Z" id="Path"/>
            <path d="M4.10200468,6.8980026 C4.17002781,6.96598753 4.25917812,7 4.34832843,7 C4.43747874,7 4.52662905,6.96598753 4.59465218,6.8980026 L5.5,5.99263063 L6.40534782,6.8980026 C6.47337095,6.96598753 6.56252126,7 6.65167157,7 C6.74082188,7 6.82997219,6.96598753 6.89799532,6.8980026 C7.03400156,6.76199273 7.03400156,6.54139184 6.89799532,6.40534196 L5.99260749,5.50001 L6.8979553,4.59463803 C7.03396155,4.45862816 7.03396155,4.23802728 6.8979553,4.10197739 C6.76190905,3.96600754 6.54139407,3.96600754 6.4053078,4.10197739 L5.5,5.00734936 L4.59465218,4.10197739 C4.45860593,3.96600754 4.23809095,3.96600754 4.10200468,4.10197739 C3.96599844,4.23798726 3.96599844,4.45858815 4.10200468,4.59463803 L5.0073525,5.50001 L4.10200468,6.40534196 C3.96599844,6.54139184 3.96599844,6.76195272 4.10200468,6.8980026 L4.10200468,6.8980026 Z" id="Path"/>
        </g>
        <g id="MOTM-STAR" transform="translate(1.000000, 1.000000)" fill="#7CC700" fill-rule="nonzero" stroke="#FFFFFF">
            <g id="star-(1)">
                <path d="M13.6284674,5.00399292 L9.32464553,4.34559586 L7.39556734,0.230468181 C7.25148439,-0.0768227271 6.74806906,-0.0768227271 6.60398611,0.230468181 L4.67549124,4.34559586 L0.371669367,5.00399292 C0.0181703079,5.05832382 -0.122995983,5.48888162 0.124920024,5.74301003 L3.25157837,8.95262268 L2.512497,13.4901293 C2.45358049,13.8505827 2.83799614,14.1210688 3.15591196,13.9440552 L7.00006839,11.816387 L10.8442248,13.9446394 C11.159224,14.1199004 11.5471396,13.8546721 11.4876398,13.4907135 L10.7485584,8.95320688 L13.8752168,5.74359423 C14.1231328,5.48888162 13.9813831,5.05832382 13.6284674,5.00399292 L13.6284674,5.00399292 Z" id="Path"/>
            </g>
        </g>
        <g id="Referee" transform="translate(1.000000, 305.000000)" fill="#C1C1C1">
            <path d="M13,4.5 L4.79418999,4.50461336 C3.59838983,4.55834565 2.52419029,5.07896624 1.749236,5.8883123 C0.975396266,6.69649434 0.5,7.79273404 0.5,9 C0.5,10.2426407 1.00367966,11.3676407 1.81801948,12.1819805 C2.63235931,12.9963203 3.75735931,13.5 5,13.5 C6.24264069,13.5 7.36764069,12.9963203 8.18198052,12.1819805 C9.10428518,11.2596758 9.6280947,9.93887603 9.47299013,8.5 L13.5,8 L13,4.5 Z" id="Combined-Shape" stroke="#C1C1C1" fill-opacity="0"/>
            <circle id="Oval" stroke="#FFFFFF" cx="5" cy="9" r="1.5"/>
            <rect id="Rectangle" transform="translate(4.500000, 2.000000) rotate(-40.000000) translate(-4.500000, -2.000000) " x="4" y="1" width="1" height="2"/>
            <rect id="Rectangle-Copy-2" x="6" y="0" width="1" height="2"/>
            <rect id="Rectangle-Copy" transform="translate(8.500000, 2.000000) scale(-1, 1) rotate(-41.000000) translate(-8.500000, -2.000000) " x="8" y="1" width="1" height="2"/>
        </g>
        <g id="Attendence" transform="translate(1.000000, 339.000000)" fill-opacity="0" stroke="#C1C1C1">
            <g id="Audience3" transform="translate(8.000000, 2.000000)">
                <path d="M3,4.5 C2.30964406,4.5 1.68464406,4.77982203 1.23223305,5.23223305 C0.779822031,5.68464406 0.5,6.30964406 0.5,7 C0.5,7.17154321 0.517231537,7.33906179 0.550104457,7.50090072 L5.44989554,7.50090072 C5.48276846,7.33906179 5.5,7.17154321 5.5,7 C5.5,6.30964406 5.22017797,5.68464406 4.76776695,5.23223305 C4.31535594,4.77982203 3.69035594,4.5 3,4.5 Z" id="Combined-Shape" fill="#D8D8D8"/>
                <circle id="Oval" fill="#C1C1C1" cx="3" cy="2" r="1.5"/>
            </g>
            <g id="Audience2" transform="translate(4.000000, 0.000000)">
                <path d="M3,4.5 C2.37965198,4.5 1.89926829,4.73218564 1.57069454,5.12647414 C1.18095877,5.59415707 1,6.26458932 1,7 C1,7.21238323 0.987358711,7.38724279 1.02384607,7.50121425 L4.97615393,7.50121425 C5.01264129,7.38724279 5,7.21238323 5,7 C5,6.26458932 4.81904123,5.59415707 4.42930546,5.12647414 C4.10073171,4.73218564 3.62034802,4.5 3,4.5 Z" id="Combined-Shape" fill="#D8D8D8"/>
                <circle id="Oval" fill="#C1C1C1" cx="3" cy="2" r="1.5"/>
            </g>
            <g id="Audience1" transform="translate(0.000000, 2.000000)">
                <path d="M3,4.5 C2.30964406,4.5 1.68464406,4.77982203 1.23223305,5.23223305 C0.779822031,5.68464406 0.5,6.30964406 0.5,7 C0.5,7.17154321 0.517231537,7.33906179 0.550104457,7.50090072 L5.44989554,7.50090072 C5.48276846,7.33906179 5.5,7.17154321 5.5,7 C5.5,6.30964406 5.22017797,5.68464406 4.76776695,5.23223305 C4.31535594,4.77982203 3.69035594,4.5 3,4.5 Z" id="Combined-Shape" fill="#D8D8D8"/>
                <circle id="Oval" fill="#C1C1C1" cx="3" cy="2" r="1.5"/>
            </g>
        </g>
        <polygon id="Rectangle" fill="#747474" points="4.98959236 361.192226 12.9893638 353.192454 14.9895924 353.010408 14.8075456 355.010636 6.80777418 363.010408"/>
        <g id="shield" transform="translate(1.000000, 368.000000)" fill="#747474" fill-rule="nonzero">
            <path d="M2.85155947,5.12251982 C2.91397357,5.86917621 3.05730396,6.89194714 3.38161674,7.96584581 C4.07039207,10.2464273 5.28715859,11.8680529 7,12.7895859 C8.71284141,11.8680529 9.92960793,10.2464273 10.6183524,7.96584581 C10.9426652,6.89203965 11.0859648,5.86923789 11.1484405,5.12251982 L7,3.04829956 L2.85155947,5.12251982 Z" id="Path"/>
            <path d="M13.9646608,3.68986344 C13.9560264,3.52352863 13.8585815,3.37467841 13.7096079,3.30020705 L7.20685463,0.048814978 C7.07662996,-0.0162819383 6.92337004,-0.0162819383 6.79314537,0.048814978 L0.29039207,3.30020705 C0.141418502,3.37467841 0.0439735683,3.52352863 0.035339207,3.68986344 C0.0304052863,3.78453304 -0.0765374449,6.03865639 0.691334802,8.65570044 C1.14568722,10.2041498 1.81398678,11.5565683 2.6776696,12.6754273 C3.76606167,14.0853568 5.16495154,15.1225595 6.83548458,15.7582952 C6.88849339,15.7784317 6.94421586,15.7885154 7,15.7885154 C7.05578414,15.7885154 7.11150661,15.7784317 7.16451542,15.7582952 C8.83504846,15.1225903 10.2339383,14.0853568 11.3223304,12.6754273 C12.1860132,11.5565683 12.8543128,10.2041189 13.3086652,8.65570044 C14.0765374,6.03865639 13.9695947,3.78453304 13.9646608,3.68986344 Z M7.20500441,13.7246564 C7.14040088,13.7566035 7.07018502,13.7725771 7,13.7725771 C6.92981498,13.7725771 6.85956828,13.7566035 6.79499559,13.7246564 C4.7353304,12.7062952 3.28895154,10.8587269 2.49607048,8.23332599 C2.09950661,6.92019383 1.9563304,5.68282819 1.90606608,4.87607048 C1.8945022,4.69080176 1.99484581,4.51660352 2.16087225,4.43359031 L6.79317621,2.11745374 C6.92340088,2.05238767 7.07666079,2.05235683 7.20688546,2.11745374 L11.8392203,4.43359031 C12.0052467,4.51657269 12.1055903,4.6908326 12.0940264,4.87610132 C12.0437313,5.6829207 11.9005551,6.92031718 11.5039912,8.23332599 C10.7110485,10.858696 9.2646696,12.7062643 7.20500441,13.7246564 L7.20500441,13.7246564 Z" id="Shape"/>
        </g>
        <polygon id="Rectangle" fill="#747474" points="2.84673522 360.010408 7.98959236 365.153265 7.1324495 366.010408 1.98959236 360.86755"/>
        <polygon id="Rectangle" fill="#747474" points="3.38959236 363.010408 4.98959236 364.610408 2.58959236 367.010408 0.98959236 365.410408"/>
        <g id="Stadium" transform="translate(1.000000, 322.500000)" fill="#C1C1C1" fill-rule="nonzero">
            <g id="stadium">
                <path d="M14,2.77749793 C14,2.77620868 14,2.77489256 14,2.77360331 C14,2.0999938 13.2516289,1.52082231 11.8358242,1.09880579 C11.3727305,0.960774793 10.8555508,0.84503719 10.2991055,0.753123967 L9.75223047,0.672115702 C8.89525,0.559332645 7.96236328,0.5 7.00002734,0.5 C6.78967187,0.5 6.58082031,0.502954545 6.37377344,0.508568182 L5.82689844,0.529894628 C4.57469141,0.594438017 3.41083203,0.76217562 2.44841406,1.0188719 L1.90151172,1.1815062 C0.65603125,1.5951157 0,2.14296901 0,2.77360331 C0,2.77508058 0,2.77663843 0,2.77814256 L0,6.49772727 L0,8.35259091 C0,8.74917149 0.273929687,9.32734917 1.57896484,9.82967562 C2.49372266,10.1818037 3.78010937,10.4393326 5.20121875,10.554936 C5.78298437,10.6024504 6.38810156,10.6265165 7,10.6265165 C7.61189844,10.6265165 8.21704297,10.6024504 8.79861719,10.5549628 C10.2198906,10.4393326 11.5062773,10.1817769 12.4210352,9.82967562 C13.726043,9.32734917 14,8.74917149 14,8.35259091 L14,6.49955372 L14,2.77749793 Z M9.86950781,8.04193388 C9.60763672,8.07953719 9.33324219,8.11254752 9.04665234,8.14018595 C9.02100391,7.64167355 8.81125,7.17638636 8.44913672,6.82041736 C8.12713672,6.50438843 7.71698047,6.3068905 7.27341016,6.2491157 L7.27341016,5.04570248 C8.17999219,5.0347438 9.06089844,4.96952893 9.86948047,4.85741736 C9.94564877,5.83076797 9.98915528,6.420602 10,6.62691942 C10.0021627,6.66806367 9.99873975,6.09438362 10,6.12691942 C10.0495579,7.40635012 10,8.20154152 10,8.12691942 L10.5,8.12691942 L10.5,6.62691942 L10.4163555,4.77251446 C10.9958789,4.67248967 11.5283711,4.54702893 11.9941445,4.39922107 L11.9941445,7.55677066 C11.5568086,7.70726446 11.0278711,7.84341529 10.4163555,7.95370041 L9.86950781,8.04193388 Z M4.95329297,8.14018595 C4.66673047,8.11254752 4.39233594,8.07953719 4.13046484,8.04193388 L4.13046484,4.85741736 C4.93904688,4.96955579 5.81998047,5.03477066 6.7265625,5.04570248 L6.7265625,6.24941116 C5.75963281,6.37667149 5.00382422,7.16822107 4.95329297,8.14018595 L4.95329297,8.14018595 Z M0.546957031,6.49955372 L0.546957031,3.69947727 C0.7503125,3.85867355 1.02396875,4.01945455 1.39012891,4.17435331 C1.39034766,4.17443388 1.39053906,4.17456818 1.39075781,4.17464876 C1.41304297,4.18407645 1.43614844,4.1932624 1.45892578,4.20255579 L1.45892578,7.33996074 C0.866523437,7.06741736 0.547695312,6.76914256 0.546929687,6.50052066 C0.546929687,6.50019835 0.546957031,6.49987603 0.546957031,6.49955372 Z M7,4.5103657 C4.97563281,4.5103657 3.06925391,4.23532438 1.82858594,3.76947314 C1.96705469,3.55317355 2.3743125,3.27329752 3.19560938,3.02927893 C4.20885938,2.72821074 5.55996875,2.56240702 7,2.56240702 C8.44003125,2.56240702 9.79114063,2.72821074 10.8043906,3.02927893 C11.6256875,3.27329752 12.0329453,3.55317355 12.1714141,3.76947314 C10.9307461,4.23532438 9.02436719,4.5103657 7,4.5103657 Z M2.00580078,4.39919421 C2.47157422,4.54702893 3.00406641,4.67246281 3.58358984,4.7724876 L3.58358984,7.95367355 C2.97207422,7.84338843 2.44313672,7.7072376 2.00580078,7.5567438 L2.00580078,4.39919421 Z M12.5410742,4.20258264 C12.5638516,4.19328926 12.586957,4.18407645 12.6092422,4.17464876 C12.6095156,4.17454132 12.6097891,4.17438017 12.6100625,4.17427273 C12.9761406,4.01937397 13.2497422,3.85861983 13.4530703,3.69945041 L13.4530703,6.49955372 C13.4530703,6.49984917 13.4530977,6.50011777 13.453125,6.50038636 C13.4524687,6.76903512 13.1336133,7.0673905 12.5411016,7.33996074 L12.5411016,4.20258264 L12.5410742,4.20258264 Z M2.32298828,1.61284298 C3.56844141,1.24161777 5.22941016,1.03713636 7,1.03713636 C8.7705625,1.03713636 10.4315586,1.24159091 11.6770117,1.61284298 C12.9854922,2.00286983 13.452332,2.46764669 13.4530977,2.77285124 C13.4530977,2.77314669 13.4530977,2.77341529 13.4530977,2.77371074 L13.4530977,2.77556405 C13.4515937,3.0232624 13.1721953,3.29886777 12.6754687,3.55059504 C12.4561445,3.13951033 11.8749531,2.78617355 10.9627109,2.51510744 C9.89953125,2.19918595 8.49220312,2.0252438 7,2.0252438 C5.50776953,2.0252438 4.10044141,2.19921281 3.03726172,2.51510744 C2.12501953,2.78614669 1.54382812,3.13948347 1.32450391,3.55059504 C0.828023437,3.29897521 0.548679687,3.02350413 0.546929687,2.77588636 L0.546929687,2.77371074 C0.546929687,2.77338843 0.546929687,2.77303926 0.546929687,2.77271694 C0.547804687,2.46748554 1.01472656,2.00284298 2.32298828,1.61284298 Z M0.546875,8.35259091 L0.546875,7.42575 C0.784027344,7.61118802 1.11682813,7.79853306 1.57899219,7.97642355 C2.43966406,8.30765496 3.62936328,8.55527273 4.95058594,8.67965909 L4.95058594,9.99330372 C2.18719922,9.72642769 0.546875,8.96267769 0.546875,8.35259091 L0.546875,8.35259091 Z M5.49746094,10.0385083 L5.49746094,8.24407851 C5.49746094,7.43023554 6.17148438,6.76814876 7,6.76814876 C7.40121484,6.76814876 7.77861328,6.92167769 8.06244141,7.20029132 C8.34624219,7.47928099 8.50253906,7.84996901 8.50253906,8.24407851 L8.50253906,10.0385083 C8.01349609,10.0722707 7.50930469,10.0893533 7,10.0893533 C6.49069531,10.0893533 5.98647656,10.0722707 5.49746094,10.0385083 L5.49746094,10.0385083 Z M13.453125,8.35259091 C13.453125,8.96267769 11.8128008,9.72640083 9.04941406,9.99330372 L9.04941406,8.67965909 C10.3706367,8.55527273 11.5603359,8.30765496 12.4210078,7.97642355 C12.8831719,7.79853306 13.2159453,7.61118802 13.453125,7.42575 L13.453125,8.35259091 Z" id="Shape"/>
            </g>
        </g>
        <path d="M8.24145058,387.5 C6.78355064,387.5 5.46197475,388.034491 4.50598599,388.904083 C3.56795647,389.757339 2.98290117,390.934708 2.98290117,392.238127 C2.98290117,392.998864 3.18205173,393.71723 3.53480531,394.352859 C3.6618175,394.581723 3.45670177,395.439946 3.03085513,396.408533 C2.93035407,396.637122 2.82321621,396.86762 2.83312476,397.175281 C2.98676921,397.084703 3.14832805,396.984571 3.31041214,396.884785 C3.72089207,396.632076 4.13333803,396.379356 5.36439094,396.204358 C6.19255867,396.693375 7.18075594,396.976253 8.24145058,396.976253 C9.69935053,396.976253 11.0209264,396.441762 11.9769152,395.57217 C12.9149447,394.718914 13.5,393.541545 13.5,392.238127 C13.5,390.934708 12.9149447,389.757339 11.9769152,388.904083 C11.0209264,388.034491 9.69935053,387.5 8.24145058,387.5 Z" id="Oval" stroke="#C9C9C9"/>
        <line x1="6" y1="390.5" x2="10.5" y2="390.5" id="Line" stroke="#C9C9C9" stroke-width="0.5" stroke-linecap="square"/>
        <line x1="6" y1="392.5" x2="10.5" y2="392.5" id="Line-Copy" stroke="#C9C9C9" stroke-width="0.5" stroke-linecap="square"/>
        <line x1="6" y1="394.5" x2="10.5" y2="394.5" id="Line-Copy-2" stroke="#C9C9C9" stroke-width="0.5" stroke-linecap="square"/>
        <g id="MOTM-STAR-Copy" transform="translate(1.000000, 401.000000)" fill="#FFAE0F" fill-rule="nonzero" stroke="#FFFFFF">
            <g id="star-(1)">
                <path d="M13.6284674,5.00399292 L9.32464553,4.34559586 L7.39556734,0.230468181 C7.25148439,-0.0768227271 6.74806906,-0.0768227271 6.60398611,0.230468181 L4.67549124,4.34559586 L0.371669367,5.00399292 C0.0181703079,5.05832382 -0.122995983,5.48888162 0.124920024,5.74301003 L3.25157837,8.95262268 L2.512497,13.4901293 C2.45358049,13.8505827 2.83799614,14.1210688 3.15591196,13.9440552 L7.00006839,11.816387 L10.8442248,13.9446394 C11.159224,14.1199004 11.5471396,13.8546721 11.4876398,13.4907135 L10.7485584,8.95320688 L13.8752168,5.74359423 C14.1231328,5.48888162 13.9813831,5.05832382 13.6284674,5.00399292 L13.6284674,5.00399292 Z" id="Path"/>
            </g>
        </g>
        <rect id="Rectangle" stroke="#C9C9C9" fill="#F0F0F0" x="1.5" y="436.5" width="13" height="7"/>
        <rect id="Rectangle" stroke="#C9C9C9" x="7.5" y="444.5" width="1" height="1"/>
        <rect id="Rectangle" stroke="#C9C9C9" x="3.5" y="445.5" width="9" height="1"/>
        <line x1="5.65181139" y1="433.739663" x2="7.81099632" y2="436.101425" id="Line-2" stroke="#C9C9C9" stroke-linecap="square"/>
        <line x1="8.34425058" y1="436.139676" x2="10.426647" y2="433.709939" id="Line-2-Copy" stroke="#C9C9C9" stroke-linecap="square"/>
    </g>
</svg>